<svg xmlns="http://www.w3.org/2000/svg" data-name="Layer 1" viewBox="0 0 512 512"><g data-name="&lt;Group&gt;"><path fill="#fdc75b" d="M479.88,91V407.05A54.105,54.105,0,0,1,425.93,461H75.28a43.293,43.293,0,0,0,43.15-43.16V91a40,40,0,0,1,40-40H439.88A40,40,0,0,1,479.88,91Z"/><path fill="#ed664c" d="M118.43,258.11V417.84a43.155,43.155,0,1,1-86.31,0V298.11a40,40,0,0,1,40-40Z"/><path d="M439.88,41H158.43a50.057,50.057,0,0,0-50,50V248.11H72.12a50.057,50.057,0,0,0-50,50V417.84A53.221,53.221,0,0,0,75.28,471H425.93a64.022,64.022,0,0,0,63.95-63.95V91A50.057,50.057,0,0,0,439.88,41ZM108.43,417.84a33.155,33.155,0,1,1-66.31,0V298.11a30.034,30.034,0,0,1,30-30h36.31Zm361.45-10.79A44,44,0,0,1,425.93,451H116.766a52.64,52.64,0,0,0,11.664-33.16V91a30.034,30.034,0,0,1,30-30H439.88a30.034,30.034,0,0,1,30,30Z"/><path d="M403.96 325.47H193.57a10 10 0 1 0 0 20H403.96a10 10 0 1 0 0-20zM403.96 245.47H193.57a10 10 0 1 0 0 20H403.96a10 10 0 0 0 0-20zM193.57 175.47H303.96a10 10 0 0 0 0-20H193.57a10 10 0 0 0 0 20z"/></g></svg>