<svg xmlns="http://www.w3.org/2000/svg" viewBox="0 0 64 64"><g data-name="Team"><path fill="#efc89d" d="M46.28,7,43.39,9.88a7.83,7.83,0,0,1-4.24,2.19,13.43,13.43,0,0,0-7.26,3.76L25,22.72s0,0,0,0a2.69,2.69,0,0,1,3.55,4l6.34-6.34A2.2,2.2,0,1,1,38,23.57L39.54,22a2.2,2.2,0,0,1,3.11,3.12l-1.52,1.53a2.2,2.2,0,0,1,3.11,3.11l-1.52,1.52a2.21,2.21,0,1,1,3.12,3.12l2.32-2.33a13.51,13.51,0,0,0,3.77-7.26,7.83,7.83,0,0,1,2.19-4.24L57,17.72Z"/><path fill="#ebb87f" d="M36.46,16a6,6,0,0,0-4.23,1.76L30.31,19.7a6.76,6.76,0,0,0-1.51-.78L25,22.72l-.25.25,4.54,2.48a2.73,2.73,0,0,1-.66,1.27l1.06-1.06,16.14,8.78,2.33-2.33a13.83,13.83,0,0,0,1.49-1.77,5.7,5.7,0,0,0-1.11-1.62A5.92,5.92,0,0,0,47,24.08a5.7,5.7,0,0,0-6.33-6.33A6,6,0,0,0,36.46,16Z"/><path fill="#efc89d" d="M9.88,43.39,7,46.28,17.72,57l2.89-2.89a7.83,7.83,0,0,1,4.24-2.19,13.51,13.51,0,0,0,7.26-3.77L45.83,34.44a2.2,2.2,0,1,0-3.11-3.12l1.52-1.52a2.2,2.2,0,0,0-3.11-3.11l1.52-1.53a2.19,2.19,0,0,0,0-3.12h0a2.2,2.2,0,0,0-3.11,0L38,23.57a2.2,2.2,0,1,0-3.11-3.12l-6.34,6.34A2.69,2.69,0,1,0,24.75,23l-2,2-6.89,6.89a13.5,13.5,0,0,0-3.76,7.26,7.83,7.83,0,0,1-2.19,4.24Z"/><path fill="#efc89d" d="M48.27 32l-.11.12-2.32 2.33L32.11 48.16a.52.52 0 0 1-.11.1h0a13.48 13.48 0 0 0 7.15 3.66 7.83 7.83 0 0 1 4.24 2.19L46.28 57 57 46.28l-2.89-2.89a7.83 7.83 0 0 1-2.19-4.24A13.41 13.41 0 0 0 48.27 32zM17.72 7L7 17.72l2.89 2.89a7.83 7.83 0 0 1 2.19 4.24A13.52 13.52 0 0 0 15.73 32l0 0 .07-.08L22.72 25l2-2 .05-.05.21-.21h0l6.89-6.89.1-.09h0a13.34 13.34 0 0 0-7.15-3.66 7.83 7.83 0 0 1-4.24-2.19z"/><path fill="#ebb87f" d="M48.27 32L32 48.27a13.5 13.5 0 0 0 3.85 2.63L49.08 37.68l1.83-1.83A13.72 13.72 0 0 0 48.27 32zM28.15 13.09l-6.39 6.39v.05a1.5 1.5 0 0 0-.24.21l-2 2L13.1 28.14A13.15 13.15 0 0 0 15.73 32L32 15.73a13.53 13.53 0 0 0-3.85-2.64z"/><path fill="#32345d" d="M57.29,44.59l-.28.28-2.18-2.18A6.91,6.91,0,0,1,52.91,39a14.14,14.14,0,0,0-3.28-7,14.43,14.43,0,0,0,3.28-7,7,7,0,0,1,1.92-3.71L57,19.13l.28.28a1,1,0,0,0,1.42,0,1,1,0,0,0,0-1.41l-1-1L47,6.28h0l-1-1a1,1,0,0,0-1.41,0,1,1,0,0,0,0,1.42l.28.28L42.69,9.17A7,7,0,0,1,39,11.09a14.24,14.24,0,0,0-7,3.28,14.28,14.28,0,0,0-7-3.28,7,7,0,0,1-3.71-1.92L19.13,7l.28-.28a1,1,0,0,0,0-1.42,1,1,0,0,0-1.41,0l-1,1h0L5.29,18a1,1,0,1,0,1.42,1.41L7,19.13l2.18,2.18A7,7,0,0,1,11.09,25a14.35,14.35,0,0,0,3.28,7,14.37,14.37,0,0,0-3.28,7,7,7,0,0,1-1.92,3.71L7,44.87l-.28-.28a1,1,0,0,0-1.42,0,1,1,0,0,0,0,1.41l1,1h0L17,57.72h0l1,1a1,1,0,0,0,1.41,0,1,1,0,0,0,0-1.42L19.13,57l2.18-2.18A6.9,6.9,0,0,1,25,52.91a14.47,14.47,0,0,0,7-3.28,14.43,14.43,0,0,0,7,3.28,6.9,6.9,0,0,1,3.71,1.92L44.87,57l-.28.28A1,1,0,0,0,46,58.71L58.71,46a1,1,0,0,0,0-1.41A1,1,0,0,0,57.29,44.59Zm-18-31.53a8.82,8.82,0,0,0,4.78-2.48L46.28,8.4l9.32,9.32L53.42,19.9a8.82,8.82,0,0,0-2.48,4.78,13,13,0,0,1-3.72,7,3.09,3.09,0,0,0-.68-1,3,3,0,0,0-1.11-.72A3.21,3.21,0,0,0,45,26a3.25,3.25,0,0,0-1.11-.73,3.2,3.2,0,0,0-.48-3.91,3.27,3.27,0,0,0-3.92-.48,3,3,0,0,0-.72-1.11,3.2,3.2,0,0,0-4.53,0l-4,4a3.73,3.73,0,0,0-.91-1.49,3.57,3.57,0,0,0-1.53-.88C31.52,18.08,33.61,14,39.32,13.06ZM10.58,19.9,8.4,17.72,17.72,8.4l2.18,2.18a8.82,8.82,0,0,0,4.78,2.48,12.31,12.31,0,0,1,5.87,2.7L15.76,30.54a12.38,12.38,0,0,1-2.7-5.86A8.82,8.82,0,0,0,10.58,19.9Zm14.1,31a8.82,8.82,0,0,0-4.78,2.48L17.72,55.6,8.4,46.28l2.18-2.18a8.82,8.82,0,0,0,2.48-4.78,12.39,12.39,0,0,1,3.48-6.72l8.91-8.92h0a1.74,1.74,0,0,1,2.4,0,1.69,1.69,0,0,1,0,2.4l-1.77,1.77h0l-.43.44a1,1,0,0,0,1.41,1.41l2.64-2.64c1.29-1.28,6.22-6.22,5.9-5.9a1.21,1.21,0,0,1,1.71,0,1.2,1.2,0,0,1,0,1.7h0L28.77,31.4a1,1,0,0,0,0,1.42,1,1,0,0,0,1.41,0l8.54-8.54h0l1.53-1.53a1.23,1.23,0,0,1,1.7,0,1.2,1.2,0,0,1,0,1.7l-.77.77-9.3,9.3a1,1,0,0,0,1.41,1.41l8.55-8.54h0a1.23,1.23,0,0,1,1.7,0,1.2,1.2,0,0,1,0,1.7L42,30.62h0l-7,7a1,1,0,0,0,0,1.42,1,1,0,0,0,1.41,0l7-7a1.2,1.2,0,1,1,1.7,1.7h0C31,47.81,29.89,50,24.68,50.94ZM44.1,53.42a8.82,8.82,0,0,0-4.78-2.48,12.46,12.46,0,0,1-5.87-2.7L48.24,33.45a12.17,12.17,0,0,1,2.7,5.87,8.85,8.85,0,0,0,2.48,4.78l2.18,2.18L46.28,55.6Z"/></g></svg>